<svg width="16" height="16" viewBox="0 0 16 16" fill="none" xmlns="http://www.w3.org/2000/svg">
<g clip-path="url(#clip0_201_39)">
<mask id="mask0_201_39" style="mask-type:alpha" maskUnits="userSpaceOnUse" x="0" y="0" width="8" height="16">
<rect width="8" height="16" fill="#D9D9D9"/>
</mask>
<g mask="url(#mask0_201_39)">
<circle cx="8" cy="8" r="3.5" stroke="white"/>
<mask id="path-3-inside-1_201_39" fill="white">
<path fill-rule="evenodd" clip-rule="evenodd" d="M8 15C11.866 15 15 11.866 15 8C15 4.13401 11.866 1 8 1C4.13401 1 1 4.13401 1 8C1 11.866 4.13401 15 8 15ZM8 11C9.65685 11 11 9.65685 11 8C11 6.34315 9.65685 5 8 5C6.34315 5 5 6.34315 5 8C5 9.65685 6.34315 11 8 11Z"/>
</mask>
<path fill-rule="evenodd" clip-rule="evenodd" d="M8 15C11.866 15 15 11.866 15 8C15 4.13401 11.866 1 8 1C4.13401 1 1 4.13401 1 8C1 11.866 4.13401 15 8 15ZM8 11C9.65685 11 11 9.65685 11 8C11 6.34315 9.65685 5 8 5C6.34315 5 5 6.34315 5 8C5 9.65685 6.34315 11 8 11Z" fill="white" fill-opacity="0.5"/>
<path d="M14 8C14 11.3137 11.3137 14 8 14V16C12.4183 16 16 12.4183 16 8H14ZM8 2C11.3137 2 14 4.68629 14 8H16C16 3.58172 12.4183 0 8 0V2ZM2 8C2 4.68629 4.68629 2 8 2V0C3.58172 0 0 3.58172 0 8H2ZM8 14C4.68629 14 2 11.3137 2 8H0C0 12.4183 3.58172 16 8 16V14ZM10 8C10 9.10457 9.10457 10 8 10V12C10.2091 12 12 10.2091 12 8H10ZM8 6C9.10457 6 10 6.89543 10 8H12C12 5.79086 10.2091 4 8 4V6ZM6 8C6 6.89543 6.89543 6 8 6V4C5.79086 4 4 5.79086 4 8H6ZM8 10C6.89543 10 6 9.10457 6 8H4C4 10.2091 5.79086 12 8 12V10Z" fill="white" mask="url(#path-3-inside-1_201_39)"/>
</g>
<mask id="mask1_201_39" style="mask-type:alpha" maskUnits="userSpaceOnUse" x="8" y="0" width="8" height="16">
<rect x="8" width="8" height="16" fill="#D9D9D9"/>
</mask>
<g mask="url(#mask1_201_39)">
<circle cx="8" cy="8" r="3.5" fill="white" fill-opacity="0.5" stroke="white"/>
<circle cx="8" cy="8" r="6.5" stroke="white"/>
</g>
</g>
<defs>
<clipPath id="clip0_201_39">
<rect width="16" height="16" fill="white"/>
</clipPath>
</defs>
</svg>
