<svg width="16" height="16" viewBox="0 0 16 16" fill="none" xmlns="http://www.w3.org/2000/svg">
<path d="M12 6.5V2C12 1.17157 11.3284 0.5 10.5 0.5H10M12 6.5H4M12 6.5V6.5C12.8284 6.5 13.5 7.17157 13.5 8V9C13.5 9.82843 12.8284 10.5 12 10.5H10.6575C9.77005 10.5 9.07662 11.2662 9.16493 12.1493L9.35074 14.0074C9.43066 14.8066 8.80312 15.5 8 15.5V15.5C7.19688 15.5 6.56934 14.8066 6.64926 14.0074L6.83507 12.1493C6.92338 11.2662 6.22995 10.5 5.34252 10.5H4C3.17157 10.5 2.5 9.82843 2.5 9V8C2.5 7.17157 3.17157 6.5 4 6.5V6.5M4 6.5V2C4 1.17157 4.67157 0.5 5.5 0.5H8M10 0.5V1.5C10 2.05228 9.55228 2.5 9 2.5V2.5M10 0.5H9M9 2.5V0.5M9 2.5V3.5C9 3.77614 8.77614 4 8.5 4V4C8.22386 4 8 3.77614 8 3.5V0.5M9 0.5H8" stroke="white" stroke-linecap="round" stroke-linejoin="round"/>
</svg>
